<svg xmlns="http://www.w3.org/2000/svg" xmlns:xlink="http://www.w3.org/1999/xlink" width="500" zoomAndPan="magnify" viewBox="0 0 375 374.999991" height="500" preserveAspectRatio="xMidYMid meet" version="1.0"><defs><g/><clipPath id="b9b777a11c"><path d="M 301.261719 178.957031 L 359.269531 178.957031 L 359.269531 207.960938 L 301.261719 207.960938 Z M 301.261719 178.957031 " clip-rule="nonzero"/></clipPath><clipPath id="516e787c70"><path d="M 344.867188 150.175781 L 373.871094 150.175781 L 373.871094 179.179688 L 344.867188 179.179688 Z M 344.867188 150.175781 " clip-rule="nonzero"/></clipPath></defs><rect x="-37.5" width="450" fill="#ffffff" y="-37.499999" height="449.999989" fill-opacity="1"/><rect x="-37.5" width="450" fill="#ffffff" y="-37.499999" height="449.999989" fill-opacity="1"/><g clip-path="url(#b9b777a11c)"><path fill="#38b6ff" d="M 306.777344 193.453125 C 306.777344 188.492188 310.804688 184.464844 315.761719 184.464844 L 327.359375 184.464844 L 327.359375 178.957031 L 315.761719 178.957031 C 307.761719 178.957031 301.265625 185.449219 301.265625 193.453125 C 301.265625 201.453125 307.761719 207.945312 315.761719 207.945312 L 327.359375 207.945312 L 327.359375 202.4375 L 315.761719 202.4375 C 310.804688 202.4375 306.777344 198.410156 306.777344 193.453125 Z M 318.660156 196.351562 L 341.855469 196.351562 L 341.855469 190.550781 L 318.660156 190.550781 Z M 344.753906 178.957031 L 333.15625 178.957031 L 333.15625 184.464844 L 344.753906 184.464844 C 349.710938 184.464844 353.742188 188.492188 353.742188 193.453125 C 353.742188 198.410156 349.710938 202.4375 344.753906 202.4375 L 333.15625 202.4375 L 333.15625 207.945312 L 344.753906 207.945312 C 352.753906 207.945312 359.25 201.453125 359.25 193.453125 C 359.25 185.449219 352.753906 178.957031 344.753906 178.957031 Z M 344.753906 178.957031 " fill-opacity="1" fill-rule="nonzero"/></g><g clip-path="url(#516e787c70)"><path fill="#000000" d="M 359.371094 179.179688 C 359.371094 171.199219 352.847656 164.679688 344.867188 164.679688 C 352.847656 164.679688 359.371094 158.15625 359.371094 150.175781 C 359.371094 158.15625 365.890625 164.679688 373.871094 164.679688 C 365.890625 164.679688 359.371094 171.199219 359.371094 179.179688 Z M 359.371094 179.179688 " fill-opacity="1" fill-rule="nonzero"/></g><g fill="#000000" fill-opacity="1"><g transform="translate(7.067157, 208.126402)"><g><path d="M 25.4375 -43.796875 L 43.109375 0 L 32.390625 0 L 29.140625 -8.765625 L 12.484375 -8.765625 L 9.234375 0 L -1.484375 0 L 16.1875 -43.796875 Z M 25.75 -17.515625 L 20.859375 -30.265625 L 20.765625 -30.265625 L 15.875 -17.515625 Z M 25.75 -17.515625 "/></g></g></g><g fill="#000000" fill-opacity="1"><g transform="translate(48.685368, 208.126402)"><g><path d="M 5.03125 -3.375 C 2.488281 -6.15625 1.21875 -9.5625 1.21875 -13.59375 C 1.21875 -17.625 2.488281 -21.035156 5.03125 -23.828125 C 7.582031 -26.628906 10.828125 -28.03125 14.765625 -28.03125 C 18.367188 -28.03125 21.34375 -26.898438 23.6875 -24.640625 L 23.6875 -45.65625 L 33.078125 -45.65625 L 33.078125 0 L 23.78125 0 L 23.78125 -3.078125 L 23.6875 -3.078125 C 21.34375 -0.492188 18.367188 0.796875 14.765625 0.796875 C 10.828125 0.796875 7.582031 -0.59375 5.03125 -3.375 Z M 13.03125 -18.203125 C 11.8125 -17.003906 11.203125 -15.46875 11.203125 -13.59375 C 11.203125 -11.71875 11.785156 -10.1875 12.953125 -9 C 14.117188 -7.8125 15.660156 -7.21875 17.578125 -7.21875 C 19.410156 -7.21875 20.921875 -7.816406 22.109375 -9.015625 C 23.296875 -10.222656 23.890625 -11.75 23.890625 -13.59375 C 23.890625 -15.46875 23.28125 -17.003906 22.0625 -18.203125 C 20.84375 -19.410156 19.347656 -20.015625 17.578125 -20.015625 C 15.765625 -20.015625 14.25 -19.410156 13.03125 -18.203125 Z M 13.03125 -18.203125 "/></g></g></g><g fill="#000000" fill-opacity="1"><g transform="translate(84.942051, 208.126402)"><g><path d="M 3.1875 0 L 3.1875 -27.234375 L 12.578125 -27.234375 L 12.578125 -23.3125 L 12.6875 -23.3125 C 12.757812 -23.445312 12.875 -23.617188 13.03125 -23.828125 C 13.1875 -24.046875 13.53125 -24.421875 14.0625 -24.953125 C 14.59375 -25.484375 15.160156 -25.960938 15.765625 -26.390625 C 16.367188 -26.816406 17.144531 -27.195312 18.09375 -27.53125 C 19.050781 -27.863281 20.03125 -28.03125 21.03125 -28.03125 C 22.050781 -28.03125 23.054688 -27.890625 24.046875 -27.609375 C 25.035156 -27.328125 25.765625 -27.046875 26.234375 -26.765625 L 26.96875 -26.328125 L 23.046875 -18.375 C 21.878906 -19.363281 20.25 -19.859375 18.15625 -19.859375 C 17.019531 -19.859375 16.046875 -19.609375 15.234375 -19.109375 C 14.421875 -18.617188 13.847656 -18.019531 13.515625 -17.3125 C 13.179688 -16.601562 12.941406 -16 12.796875 -15.5 C 12.648438 -15.007812 12.578125 -14.617188 12.578125 -14.328125 L 12.578125 0 Z M 3.1875 0 "/></g></g></g><g fill="#000000" fill-opacity="1"><g transform="translate(111.378114, 208.126402)"><g><path d="M 4.078125 -42.421875 C 5.179688 -43.515625 6.492188 -44.0625 8.015625 -44.0625 C 9.535156 -44.0625 10.84375 -43.515625 11.9375 -42.421875 C 13.039062 -41.328125 13.59375 -40.015625 13.59375 -38.484375 C 13.59375 -36.960938 13.039062 -35.65625 11.9375 -34.5625 C 10.84375 -33.46875 9.535156 -32.921875 8.015625 -32.921875 C 6.492188 -32.921875 5.179688 -33.46875 4.078125 -34.5625 C 2.984375 -35.65625 2.4375 -36.960938 2.4375 -38.484375 C 2.4375 -40.015625 2.984375 -41.328125 4.078125 -42.421875 Z M 3.1875 -27.234375 L 3.1875 0 L 12.578125 0 L 12.578125 -27.234375 Z M 3.1875 -27.234375 "/></g></g></g><g fill="#000000" fill-opacity="1"><g transform="translate(127.409612, 208.126402)"><g><path d="M 5.03125 -3.375 C 2.488281 -6.15625 1.21875 -9.5625 1.21875 -13.59375 C 1.21875 -17.625 2.488281 -21.035156 5.03125 -23.828125 C 7.582031 -26.628906 10.828125 -28.03125 14.765625 -28.03125 C 18.367188 -28.03125 21.34375 -26.898438 23.6875 -24.640625 L 23.6875 -27.234375 L 33.078125 -27.234375 L 33.078125 0 L 23.78125 0 L 23.78125 -3.078125 L 23.6875 -3.078125 C 21.34375 -0.492188 18.367188 0.796875 14.765625 0.796875 C 10.828125 0.796875 7.582031 -0.59375 5.03125 -3.375 Z M 13.03125 -18.203125 C 11.8125 -17.003906 11.203125 -15.46875 11.203125 -13.59375 C 11.203125 -11.71875 11.785156 -10.1875 12.953125 -9 C 14.117188 -7.8125 15.660156 -7.21875 17.578125 -7.21875 C 19.410156 -7.21875 20.921875 -7.816406 22.109375 -9.015625 C 23.296875 -10.222656 23.890625 -11.75 23.890625 -13.59375 C 23.890625 -15.46875 23.28125 -17.003906 22.0625 -18.203125 C 20.84375 -19.410156 19.347656 -20.015625 17.578125 -20.015625 C 15.765625 -20.015625 14.25 -19.410156 13.03125 -18.203125 Z M 13.03125 -18.203125 "/></g></g></g><g fill="#38b6ff" fill-opacity="1"><g transform="translate(167.043831, 208.126402)"><g><path d="M 13.171875 -43.796875 L 13.171875 -8.765625 L 28.25 -8.765625 L 28.25 0 L 3.1875 0 L 3.1875 -43.796875 Z M 13.171875 -43.796875 "/></g></g></g><g fill="#38b6ff" fill-opacity="1"><g transform="translate(197.036546, 208.126402)"><g><path d="M 5.03125 -3.375 C 2.488281 -6.15625 1.21875 -9.5625 1.21875 -13.59375 C 1.21875 -17.625 2.488281 -21.035156 5.03125 -23.828125 C 7.582031 -26.628906 10.828125 -28.03125 14.765625 -28.03125 C 18.367188 -28.03125 21.34375 -26.898438 23.6875 -24.640625 L 23.6875 -27.234375 L 33.078125 -27.234375 L 33.078125 0 L 23.78125 0 L 23.78125 -3.078125 L 23.6875 -3.078125 C 21.34375 -0.492188 18.367188 0.796875 14.765625 0.796875 C 10.828125 0.796875 7.582031 -0.59375 5.03125 -3.375 Z M 13.03125 -18.203125 C 11.8125 -17.003906 11.203125 -15.46875 11.203125 -13.59375 C 11.203125 -11.71875 11.785156 -10.1875 12.953125 -9 C 14.117188 -7.8125 15.660156 -7.21875 17.578125 -7.21875 C 19.410156 -7.21875 20.921875 -7.816406 22.109375 -9.015625 C 23.296875 -10.222656 23.890625 -11.75 23.890625 -13.59375 C 23.890625 -15.46875 23.28125 -17.003906 22.0625 -18.203125 C 20.84375 -19.410156 19.347656 -20.015625 17.578125 -20.015625 C 15.765625 -20.015625 14.25 -19.410156 13.03125 -18.203125 Z M 13.03125 -18.203125 "/></g></g></g><g fill="#38b6ff" fill-opacity="1"><g transform="translate(233.293228, 208.126402)"><g><path d="M 31.21875 -23.828125 C 33.769531 -21.035156 35.046875 -17.625 35.046875 -13.59375 C 35.046875 -9.5625 33.769531 -6.15625 31.21875 -3.375 C 28.664062 -0.59375 25.425781 0.796875 21.5 0.796875 C 17.894531 0.796875 14.921875 -0.492188 12.578125 -3.078125 L 12.484375 -3.078125 L 12.484375 0 L 3.1875 0 L 3.1875 -45.65625 L 12.578125 -45.65625 L 12.578125 -24.640625 C 14.921875 -26.898438 17.894531 -28.03125 21.5 -28.03125 C 25.425781 -28.03125 28.664062 -26.628906 31.21875 -23.828125 Z M 23.3125 -9 C 24.476562 -10.1875 25.0625 -11.71875 25.0625 -13.59375 C 25.0625 -15.46875 24.445312 -17.003906 23.21875 -18.203125 C 22 -19.410156 20.488281 -20.015625 18.6875 -20.015625 C 16.914062 -20.015625 15.421875 -19.410156 14.203125 -18.203125 C 12.984375 -17.003906 12.375 -15.46875 12.375 -13.59375 C 12.375 -11.75 12.960938 -10.222656 14.140625 -9.015625 C 15.328125 -7.816406 16.84375 -7.21875 18.6875 -7.21875 C 20.601562 -7.21875 22.144531 -7.8125 23.3125 -9 Z M 23.3125 -9 "/></g></g></g><g fill="#38b6ff" fill-opacity="1"><g transform="translate(269.549911, 208.126402)"><g><path d="M 15.03125 -28.03125 C 16.582031 -28.03125 18.117188 -27.851562 19.640625 -27.5 C 21.160156 -27.144531 22.296875 -26.789062 23.046875 -26.4375 L 24.15625 -25.90625 L 21.078125 -19.75 C 18.953125 -20.882812 16.9375 -21.453125 15.03125 -21.453125 C 13.96875 -21.453125 13.210938 -21.335938 12.765625 -21.109375 C 12.328125 -20.878906 12.109375 -20.441406 12.109375 -19.796875 C 12.109375 -19.660156 12.125 -19.519531 12.15625 -19.375 C 12.195312 -19.238281 12.269531 -19.109375 12.375 -18.984375 C 12.476562 -18.859375 12.570312 -18.75 12.65625 -18.65625 C 12.75 -18.570312 12.898438 -18.476562 13.109375 -18.375 C 13.328125 -18.269531 13.492188 -18.1875 13.609375 -18.125 C 13.734375 -18.070312 13.9375 -17.992188 14.21875 -17.890625 C 14.507812 -17.785156 14.722656 -17.707031 14.859375 -17.65625 C 15.003906 -17.601562 15.242188 -17.519531 15.578125 -17.40625 C 15.921875 -17.300781 16.179688 -17.234375 16.359375 -17.203125 C 17.453125 -16.878906 18.40625 -16.523438 19.21875 -16.140625 C 20.03125 -15.753906 20.890625 -15.222656 21.796875 -14.546875 C 22.703125 -13.867188 23.398438 -13.015625 23.890625 -11.984375 C 24.390625 -10.960938 24.640625 -9.800781 24.640625 -8.5 C 24.640625 -2.300781 20.335938 0.796875 11.734375 0.796875 C 9.785156 0.796875 7.9375 0.492188 6.1875 -0.109375 C 4.4375 -0.710938 3.171875 -1.3125 2.390625 -1.90625 L 1.21875 -2.859375 L 5.046875 -9.296875 C 5.328125 -9.046875 5.695312 -8.75 6.15625 -8.40625 C 6.613281 -8.070312 7.441406 -7.613281 8.640625 -7.03125 C 9.847656 -6.445312 10.894531 -6.15625 11.78125 -6.15625 C 13.726562 -6.15625 14.703125 -6.8125 14.703125 -8.125 C 14.703125 -8.726562 14.453125 -9.195312 13.953125 -9.53125 C 13.460938 -9.863281 12.625 -10.242188 11.4375 -10.671875 C 10.25 -11.097656 9.320312 -11.488281 8.65625 -11.84375 C 6.957031 -12.726562 5.609375 -13.726562 4.609375 -14.84375 C 3.617188 -15.957031 3.125 -17.429688 3.125 -19.265625 C 3.125 -22.035156 4.195312 -24.1875 6.34375 -25.71875 C 8.488281 -27.257812 11.382812 -28.03125 15.03125 -28.03125 Z M 15.03125 -28.03125 "/></g></g></g></svg>